
<svg xmlns="http://www.w3.org/2000/svg" fill="rgb(31, 31, 31)" width="90.077392578125" height="88.33844757080078" viewBox="4.924239635467529 5.830559253692627 90.077392578125 88.33844757080078">
<path d="M49.896 60.677c-.512 0-1.023-.13-1.483-.392L6.522 36.486a3.002 3.002 0 0 1-.051-5.195l42.1-25.038a3.007 3.007 0 0 1 3.062-.007l41.889 24.676a3.004 3.004 0 0 1-.031 5.195l-42.098 24.16c-.463.267-.98.4-1.497.4zM13.985 33.813L49.89 54.211l36.127-20.733-35.904-21.15-36.128 21.485z"></path>
<path d="M49.896 77.431c-.512 0-1.023-.13-1.483-.392L6.522 53.241a3.006 3.006 0 1 1 2.967-5.226l40.4 22.95L90.498 47.66a3.004 3.004 0 1 1 2.991 5.212l-42.097 24.16a2.987 2.987 0 0 1-1.496.399z"></path>
<path d="M49.896 94.169c-.512 0-1.023-.13-1.483-.392L6.522 69.979a3.006 3.006 0 1 1 2.967-5.226l40.4 22.95 40.609-23.305a3.006 3.006 0 0 1 2.991 5.212L51.392 93.77a2.987 2.987 0 0 1-1.496.399z"></path></svg>